<svg xmlns="http://www.w3.org/2000/svg" viewBox="0 0 21.98 21.98">
  <path d="M13.36,12.2a.52.52,0,0,0-.11.73l0,0,.05.05a.59.59,0,0,0,.81.1,2.69,2.69,0,0,0,.43-3.79,2.91,2.91,0,0,0-.43-.43h0a.59.59,0,0,0-.83.08h0a.61.61,0,0,0,.1.85,1.51,1.51,0,0,1-.06,2.38Z"/>
  <path d="M15.33,13.3a4.15,4.15,0,0,1-.56.55.61.61,0,0,0-.07.83.59.59,0,0,0,.82.1A4.86,4.86,0,0,0,16.27,8a4.44,4.44,0,0,0-.75-.75.58.58,0,0,0-.83.09.59.59,0,0,0,.08.83A3.69,3.69,0,0,1,15.33,13.3Z"/>
  <path d="M12,12V6.93a.81.81,0,0,0-.8-.82.84.84,0,0,0-.49.16L8.49,8l-3.9-4.5-.76.66L7.69,8.57l-.08.06H6.13a.7.7,0,0,0-.7.7v3.31a.7.7,0,0,0,.7.7H7.62l3.07,2.34a.81.81,0,0,0,1.13-.12A.84.84,0,0,0,12,15V13.52l4.85,5.6.75-.66Z"/>
</svg>
