<svg xmlns="http://www.w3.org/2000/svg" viewBox="0 0 21.98 21.98">
  <path d="M14.56,9.31a2.85,2.85,0,0,0-.43-.42h0a.59.59,0,0,0-.83.08h0a.61.61,0,0,0,.1.85A1.48,1.48,0,0,1,14,11a1.51,1.51,0,0,1-.61,1.22.52.52,0,0,0-.11.73l0,0,.05,0a.6.6,0,0,0,.81.1A2.7,2.7,0,0,0,14.56,9.31Z"/>
  <path d="M16.27,8a4.44,4.44,0,0,0-.75-.75.59.59,0,0,0-.83.08.6.6,0,0,0,.08.84,3.68,3.68,0,0,1,0,5.73.61.61,0,0,0-.07.83.6.6,0,0,0,.82.1A4.86,4.86,0,0,0,16.27,8Z"/>
  <path d="M11.2,6.11a.85.85,0,0,0-.51.17L7.62,8.64H6.13a.7.7,0,0,0-.7.7v3.31a.7.7,0,0,0,.7.7H7.62l3.07,2.34a.8.8,0,0,0,1.13-.13A.74.74,0,0,0,12,15V6.94A.81.81,0,0,0,11.2,6.11Z"/>
</svg>
